<mxfile host="app.diagrams.net" agent="Mozilla/5.0 (Windows NT 10.0; Win64; x64) AppleWebKit/537.36 (KHTML, like Gecko) Chrome/130.0.0.0 Safari/537.36" version="24.8.3" pages="3">
  <diagram name="Page-1" id="bcHpMJg_UzrBf6OHgKPE">
    <mxGraphModel dx="1674" dy="780" grid="1" gridSize="10" guides="1" tooltips="1" connect="1" arrows="1" fold="1" page="1" pageScale="1" pageWidth="850" pageHeight="1100" math="0" shadow="0">
      <root>
        <mxCell id="0" />
        <mxCell id="1" parent="0" />
        <mxCell id="CpqKX4tB9ZzyP8IAw-J3-7" value="CachedItems" style="swimlane;fontStyle=0;childLayout=stackLayout;horizontal=1;startSize=30;horizontalStack=0;resizeParent=1;resizeParentMax=0;resizeLast=0;collapsible=1;marginBottom=0;whiteSpace=wrap;html=1;" parent="1" vertex="1">
          <mxGeometry x="520" y="30" width="140" height="120" as="geometry" />
        </mxCell>
        <mxCell id="CpqKX4tB9ZzyP8IAw-J3-8" value="Key1&amp;nbsp;" style="text;strokeColor=none;fillColor=none;align=left;verticalAlign=middle;spacingLeft=4;spacingRight=4;overflow=hidden;points=[[0,0.5],[1,0.5]];portConstraint=eastwest;rotatable=0;whiteSpace=wrap;html=1;" parent="CpqKX4tB9ZzyP8IAw-J3-7" vertex="1">
          <mxGeometry y="30" width="140" height="30" as="geometry" />
        </mxCell>
        <mxCell id="CpqKX4tB9ZzyP8IAw-J3-9" value="Key2" style="text;strokeColor=none;fillColor=none;align=left;verticalAlign=middle;spacingLeft=4;spacingRight=4;overflow=hidden;points=[[0,0.5],[1,0.5]];portConstraint=eastwest;rotatable=0;whiteSpace=wrap;html=1;" parent="CpqKX4tB9ZzyP8IAw-J3-7" vertex="1">
          <mxGeometry y="60" width="140" height="30" as="geometry" />
        </mxCell>
        <mxCell id="CpqKX4tB9ZzyP8IAw-J3-10" value="Null" style="text;strokeColor=none;fillColor=none;align=left;verticalAlign=middle;spacingLeft=4;spacingRight=4;overflow=hidden;points=[[0,0.5],[1,0.5]];portConstraint=eastwest;rotatable=0;whiteSpace=wrap;html=1;" parent="CpqKX4tB9ZzyP8IAw-J3-7" vertex="1">
          <mxGeometry y="90" width="140" height="30" as="geometry" />
        </mxCell>
        <mxCell id="CpqKX4tB9ZzyP8IAw-J3-11" value="LruCache" style="swimlane;fontStyle=0;childLayout=stackLayout;horizontal=1;startSize=30;horizontalStack=0;resizeParent=1;resizeParentMax=0;resizeLast=0;collapsible=1;marginBottom=0;whiteSpace=wrap;html=1;" parent="1" vertex="1">
          <mxGeometry x="280" y="30" width="160" height="210" as="geometry" />
        </mxCell>
        <mxCell id="CpqKX4tB9ZzyP8IAw-J3-17" value="Ctr" style="text;strokeColor=none;fillColor=none;align=left;verticalAlign=middle;spacingLeft=4;spacingRight=4;overflow=hidden;points=[[0,0.5],[1,0.5]];portConstraint=eastwest;rotatable=0;whiteSpace=wrap;html=1;" parent="CpqKX4tB9ZzyP8IAw-J3-11" vertex="1">
          <mxGeometry y="30" width="160" height="30" as="geometry" />
        </mxCell>
        <mxCell id="CpqKX4tB9ZzyP8IAw-J3-12" value="Capacity" style="text;strokeColor=none;fillColor=none;align=left;verticalAlign=middle;spacingLeft=4;spacingRight=4;overflow=hidden;points=[[0,0.5],[1,0.5]];portConstraint=eastwest;rotatable=0;whiteSpace=wrap;html=1;" parent="CpqKX4tB9ZzyP8IAw-J3-11" vertex="1">
          <mxGeometry y="60" width="160" height="30" as="geometry" />
        </mxCell>
        <mxCell id="CpqKX4tB9ZzyP8IAw-J3-13" value="ItemsCache&amp;lt;Idictionary&amp;gt;" style="text;strokeColor=none;fillColor=none;align=left;verticalAlign=middle;spacingLeft=4;spacingRight=4;overflow=hidden;points=[[0,0.5],[1,0.5]];portConstraint=eastwest;rotatable=0;whiteSpace=wrap;html=1;" parent="CpqKX4tB9ZzyP8IAw-J3-11" vertex="1">
          <mxGeometry y="90" width="160" height="30" as="geometry" />
        </mxCell>
        <mxCell id="CpqKX4tB9ZzyP8IAw-J3-25" value="It&lt;span style=&quot;background-color: initial;&quot;&gt;emsUsed&amp;lt;IList&amp;gt;&lt;/span&gt;" style="text;strokeColor=none;fillColor=none;align=left;verticalAlign=middle;spacingLeft=4;spacingRight=4;overflow=hidden;points=[[0,0.5],[1,0.5]];portConstraint=eastwest;rotatable=0;whiteSpace=wrap;html=1;" parent="CpqKX4tB9ZzyP8IAw-J3-11" vertex="1">
          <mxGeometry y="120" width="160" height="30" as="geometry" />
        </mxCell>
        <mxCell id="CpqKX4tB9ZzyP8IAw-J3-15" value="Put()" style="text;strokeColor=none;fillColor=none;align=left;verticalAlign=middle;spacingLeft=4;spacingRight=4;overflow=hidden;points=[[0,0.5],[1,0.5]];portConstraint=eastwest;rotatable=0;whiteSpace=wrap;html=1;" parent="CpqKX4tB9ZzyP8IAw-J3-11" vertex="1">
          <mxGeometry y="150" width="160" height="30" as="geometry" />
        </mxCell>
        <mxCell id="CpqKX4tB9ZzyP8IAw-J3-14" value="Get()" style="text;strokeColor=none;fillColor=none;align=left;verticalAlign=middle;spacingLeft=4;spacingRight=4;overflow=hidden;points=[[0,0.5],[1,0.5]];portConstraint=eastwest;rotatable=0;whiteSpace=wrap;html=1;" parent="CpqKX4tB9ZzyP8IAw-J3-11" vertex="1">
          <mxGeometry y="180" width="160" height="30" as="geometry" />
        </mxCell>
        <mxCell id="CpqKX4tB9ZzyP8IAw-J3-16" style="edgeStyle=orthogonalEdgeStyle;rounded=0;orthogonalLoop=1;jettySize=auto;html=1;" parent="1" source="CpqKX4tB9ZzyP8IAw-J3-13" target="CpqKX4tB9ZzyP8IAw-J3-7" edge="1">
          <mxGeometry relative="1" as="geometry" />
        </mxCell>
        <mxCell id="CpqKX4tB9ZzyP8IAw-J3-19" value="1. Set capacity&lt;br&gt;&lt;div style=&quot;&quot;&gt;&lt;span style=&quot;background-color: initial;&quot;&gt;2. Init members&lt;/span&gt;&lt;/div&gt;" style="text;html=1;align=left;verticalAlign=middle;whiteSpace=wrap;rounded=0;strokeColor=#d6b656;fillColor=#fff2cc;" parent="1" vertex="1">
          <mxGeometry x="30" y="40" width="120" height="50" as="geometry" />
        </mxCell>
        <mxCell id="CpqKX4tB9ZzyP8IAw-J3-26" value="OrderItems" style="swimlane;fontStyle=0;childLayout=stackLayout;horizontal=1;startSize=30;horizontalStack=0;resizeParent=1;resizeParentMax=0;resizeLast=0;collapsible=1;marginBottom=0;whiteSpace=wrap;html=1;" parent="1" vertex="1">
          <mxGeometry x="520" y="195" width="140" height="120" as="geometry" />
        </mxCell>
        <mxCell id="CpqKX4tB9ZzyP8IAw-J3-27" value="Key1" style="text;strokeColor=none;fillColor=none;align=left;verticalAlign=middle;spacingLeft=4;spacingRight=4;overflow=hidden;points=[[0,0.5],[1,0.5]];portConstraint=eastwest;rotatable=0;whiteSpace=wrap;html=1;" parent="CpqKX4tB9ZzyP8IAw-J3-26" vertex="1">
          <mxGeometry y="30" width="140" height="30" as="geometry" />
        </mxCell>
        <mxCell id="CpqKX4tB9ZzyP8IAw-J3-28" value="Key2" style="text;strokeColor=none;fillColor=none;align=left;verticalAlign=middle;spacingLeft=4;spacingRight=4;overflow=hidden;points=[[0,0.5],[1,0.5]];portConstraint=eastwest;rotatable=0;whiteSpace=wrap;html=1;" parent="CpqKX4tB9ZzyP8IAw-J3-26" vertex="1">
          <mxGeometry y="60" width="140" height="30" as="geometry" />
        </mxCell>
        <mxCell id="CpqKX4tB9ZzyP8IAw-J3-29" value="Null" style="text;strokeColor=none;fillColor=none;align=left;verticalAlign=middle;spacingLeft=4;spacingRight=4;overflow=hidden;points=[[0,0.5],[1,0.5]];portConstraint=eastwest;rotatable=0;whiteSpace=wrap;html=1;" parent="CpqKX4tB9ZzyP8IAw-J3-26" vertex="1">
          <mxGeometry y="90" width="140" height="30" as="geometry" />
        </mxCell>
        <mxCell id="CpqKX4tB9ZzyP8IAw-J3-30" value="&lt;span style=&quot;text-align: left;&quot;&gt;Key&lt;/span&gt;" style="swimlane;fontStyle=0;childLayout=stackLayout;horizontal=1;startSize=30;horizontalStack=0;resizeParent=1;resizeParentMax=0;resizeLast=0;collapsible=1;marginBottom=0;whiteSpace=wrap;html=1;" parent="1" vertex="1">
          <mxGeometry x="670" y="30" width="140" height="120" as="geometry" />
        </mxCell>
        <mxCell id="CpqKX4tB9ZzyP8IAw-J3-31" value="ID: string" style="text;strokeColor=none;fillColor=none;align=left;verticalAlign=middle;spacingLeft=4;spacingRight=4;overflow=hidden;points=[[0,0.5],[1,0.5]];portConstraint=eastwest;rotatable=0;whiteSpace=wrap;html=1;" parent="CpqKX4tB9ZzyP8IAw-J3-30" vertex="1">
          <mxGeometry y="30" width="140" height="30" as="geometry" />
        </mxCell>
        <mxCell id="CpqKX4tB9ZzyP8IAw-J3-32" value="Order: int" style="text;strokeColor=none;fillColor=none;align=left;verticalAlign=middle;spacingLeft=4;spacingRight=4;overflow=hidden;points=[[0,0.5],[1,0.5]];portConstraint=eastwest;rotatable=0;whiteSpace=wrap;html=1;" parent="CpqKX4tB9ZzyP8IAw-J3-30" vertex="1">
          <mxGeometry y="60" width="140" height="30" as="geometry" />
        </mxCell>
        <mxCell id="CpqKX4tB9ZzyP8IAw-J3-33" value="Value: string" style="text;strokeColor=none;fillColor=none;align=left;verticalAlign=middle;spacingLeft=4;spacingRight=4;overflow=hidden;points=[[0,0.5],[1,0.5]];portConstraint=eastwest;rotatable=0;whiteSpace=wrap;html=1;" parent="CpqKX4tB9ZzyP8IAw-J3-30" vertex="1">
          <mxGeometry y="90" width="140" height="30" as="geometry" />
        </mxCell>
        <mxCell id="CpqKX4tB9ZzyP8IAw-J3-34" style="edgeStyle=orthogonalEdgeStyle;rounded=0;orthogonalLoop=1;jettySize=auto;html=1;" parent="1" source="CpqKX4tB9ZzyP8IAw-J3-25" target="CpqKX4tB9ZzyP8IAw-J3-26" edge="1">
          <mxGeometry relative="1" as="geometry">
            <Array as="points">
              <mxPoint x="480" y="165" />
              <mxPoint x="480" y="255" />
            </Array>
          </mxGeometry>
        </mxCell>
        <mxCell id="CpqKX4tB9ZzyP8IAw-J3-35" value="1. If exists throw exception/ Do nothing&lt;div&gt;2. If capacity is valid:&amp;nbsp;&lt;br&gt;&amp;nbsp; &amp;nbsp; - Add&amp;nbsp;&lt;/div&gt;" style="text;html=1;align=left;verticalAlign=middle;whiteSpace=wrap;rounded=0;strokeColor=#d6b656;fillColor=#fff2cc;" parent="1" vertex="1">
          <mxGeometry x="30" y="130" width="230" height="200" as="geometry" />
        </mxCell>
        <mxCell id="CpqKX4tB9ZzyP8IAw-J3-36" value="" style="endArrow=none;dashed=1;html=1;dashPattern=1 3;strokeWidth=2;rounded=0;" parent="1" source="CpqKX4tB9ZzyP8IAw-J3-19" target="CpqKX4tB9ZzyP8IAw-J3-17" edge="1">
          <mxGeometry width="50" height="50" relative="1" as="geometry">
            <mxPoint x="380" y="260" as="sourcePoint" />
            <mxPoint x="430" y="210" as="targetPoint" />
          </mxGeometry>
        </mxCell>
      </root>
    </mxGraphModel>
  </diagram>
  <diagram id="fOOwg3ezqsLg5iwMnfAM" name="Models">
    <mxGraphModel dx="934" dy="534" grid="1" gridSize="10" guides="1" tooltips="1" connect="1" arrows="1" fold="1" page="1" pageScale="1" pageWidth="850" pageHeight="1100" math="0" shadow="0">
      <root>
        <mxCell id="0" />
        <mxCell id="1" parent="0" />
        <mxCell id="zhDzLkj9nekMjERnJ0Cm-1" value="Position" style="swimlane;fontStyle=1;childLayout=stackLayout;horizontal=1;startSize=30;horizontalStack=0;resizeParent=1;resizeParentMax=0;resizeLast=0;collapsible=1;marginBottom=0;whiteSpace=wrap;fillColor=#fff2cc;strokeColor=#d6b656;fontSize=16;html=1;" parent="1" vertex="1">
          <mxGeometry x="257.5" y="90" width="140" height="150" as="geometry" />
        </mxCell>
        <mxCell id="zhDzLkj9nekMjERnJ0Cm-2" value="X" style="text;strokeColor=none;fillColor=none;align=left;verticalAlign=middle;spacingLeft=4;spacingRight=4;overflow=hidden;points=[[0,0.5],[1,0.5]];portConstraint=eastwest;rotatable=0;whiteSpace=wrap;html=1;" parent="zhDzLkj9nekMjERnJ0Cm-1" vertex="1">
          <mxGeometry y="30" width="140" height="30" as="geometry" />
        </mxCell>
        <mxCell id="zhDzLkj9nekMjERnJ0Cm-3" value="Y" style="text;strokeColor=none;fillColor=none;align=left;verticalAlign=middle;spacingLeft=4;spacingRight=4;overflow=hidden;points=[[0,0.5],[1,0.5]];portConstraint=eastwest;rotatable=0;whiteSpace=wrap;html=1;" parent="zhDzLkj9nekMjERnJ0Cm-1" vertex="1">
          <mxGeometry y="60" width="140" height="30" as="geometry" />
        </mxCell>
        <mxCell id="zhDzLkj9nekMjERnJ0Cm-4" value="HasValue()" style="text;strokeColor=none;fillColor=none;align=left;verticalAlign=middle;spacingLeft=4;spacingRight=4;overflow=hidden;points=[[0,0.5],[1,0.5]];portConstraint=eastwest;rotatable=0;whiteSpace=wrap;html=1;" parent="zhDzLkj9nekMjERnJ0Cm-1" vertex="1">
          <mxGeometry y="90" width="140" height="30" as="geometry" />
        </mxCell>
        <mxCell id="zhDzLkj9nekMjERnJ0Cm-5" value="ToString()" style="text;strokeColor=none;fillColor=none;align=left;verticalAlign=middle;spacingLeft=4;spacingRight=4;overflow=hidden;points=[[0,0.5],[1,0.5]];portConstraint=eastwest;rotatable=0;whiteSpace=wrap;html=1;" parent="zhDzLkj9nekMjERnJ0Cm-1" vertex="1">
          <mxGeometry y="120" width="140" height="30" as="geometry" />
        </mxCell>
        <mxCell id="zhDzLkj9nekMjERnJ0Cm-6" value="&lt;div style=&quot;text-align: start;&quot;&gt;&lt;font face=&quot;-apple-system, BlinkMacSystemFont, Segoe UI, Noto Sans, Helvetica, Arial, sans-serif, Apple Color Emoji, Segoe UI Emoji&quot; color=&quot;#1f2328&quot;&gt;&lt;span style=&quot;font-size: 16px;&quot;&gt;&lt;b&gt;Castle&lt;/b&gt;&lt;/span&gt;&lt;/font&gt;&lt;/div&gt;" style="swimlane;fontStyle=0;childLayout=stackLayout;horizontal=1;startSize=30;horizontalStack=0;resizeParent=1;resizeParentMax=0;resizeLast=0;collapsible=1;marginBottom=0;whiteSpace=wrap;html=1;fillColor=#fff2cc;strokeColor=#d6b656;" parent="1" vertex="1">
          <mxGeometry x="397.5" y="270" width="195" height="90" as="geometry" />
        </mxCell>
        <mxCell id="zhDzLkj9nekMjERnJ0Cm-7" value="SrcRock" style="text;strokeColor=none;fillColor=none;align=left;verticalAlign=middle;spacingLeft=4;spacingRight=4;overflow=hidden;points=[[0,0.5],[1,0.5]];portConstraint=eastwest;rotatable=0;whiteSpace=wrap;html=1;" parent="zhDzLkj9nekMjERnJ0Cm-6" vertex="1">
          <mxGeometry y="30" width="195" height="30" as="geometry" />
        </mxCell>
        <mxCell id="zhDzLkj9nekMjERnJ0Cm-8" value="DestRock" style="text;strokeColor=none;fillColor=none;align=left;verticalAlign=middle;spacingLeft=4;spacingRight=4;overflow=hidden;points=[[0,0.5],[1,0.5]];portConstraint=eastwest;rotatable=0;whiteSpace=wrap;html=1;" parent="zhDzLkj9nekMjERnJ0Cm-6" vertex="1">
          <mxGeometry y="60" width="195" height="30" as="geometry" />
        </mxCell>
        <mxCell id="zhDzLkj9nekMjERnJ0Cm-12" value="&lt;p style=&quot;line-height: 90%;&quot;&gt;&lt;b&gt;&lt;font style=&quot;font-size: 16px;&quot;&gt;Piece&lt;/font&gt;&lt;/b&gt;&lt;/p&gt;" style="swimlane;fontStyle=0;childLayout=stackLayout;horizontal=1;startSize=30;horizontalStack=0;resizeParent=1;resizeParentMax=0;resizeLast=0;collapsible=1;marginBottom=0;whiteSpace=wrap;fillColor=#fff2cc;strokeColor=#d6b656;html=1;" parent="1" vertex="1">
          <mxGeometry x="460" y="60" width="140" height="150" as="geometry" />
        </mxCell>
        <mxCell id="zhDzLkj9nekMjERnJ0Cm-13" value="Color&amp;nbsp;" style="text;strokeColor=none;fillColor=none;align=left;verticalAlign=middle;spacingLeft=4;spacingRight=4;overflow=hidden;points=[[0,0.5],[1,0.5]];portConstraint=eastwest;rotatable=0;whiteSpace=wrap;html=1;" parent="zhDzLkj9nekMjERnJ0Cm-12" vertex="1">
          <mxGeometry y="30" width="140" height="30" as="geometry" />
        </mxCell>
        <mxCell id="zhDzLkj9nekMjERnJ0Cm-15" value="Type&amp;nbsp;" style="text;strokeColor=none;fillColor=none;align=left;verticalAlign=middle;spacingLeft=4;spacingRight=4;overflow=hidden;points=[[0,0.5],[1,0.5]];portConstraint=eastwest;rotatable=0;whiteSpace=wrap;html=1;" parent="zhDzLkj9nekMjERnJ0Cm-12" vertex="1">
          <mxGeometry y="60" width="140" height="30" as="geometry" />
        </mxCell>
        <mxCell id="zhDzLkj9nekMjERnJ0Cm-16" value="Position" style="text;strokeColor=none;fillColor=none;align=left;verticalAlign=middle;spacingLeft=4;spacingRight=4;overflow=hidden;points=[[0,0.5],[1,0.5]];portConstraint=eastwest;rotatable=0;whiteSpace=wrap;html=1;" parent="zhDzLkj9nekMjERnJ0Cm-12" vertex="1">
          <mxGeometry y="90" width="140" height="30" as="geometry" />
        </mxCell>
        <mxCell id="zhDzLkj9nekMjERnJ0Cm-14" value="OriginalPieceType&amp;nbsp;" style="text;strokeColor=none;fillColor=none;align=left;verticalAlign=middle;spacingLeft=4;spacingRight=4;overflow=hidden;points=[[0,0.5],[1,0.5]];portConstraint=eastwest;rotatable=0;whiteSpace=wrap;html=1;" parent="zhDzLkj9nekMjERnJ0Cm-12" vertex="1">
          <mxGeometry y="120" width="140" height="30" as="geometry" />
        </mxCell>
        <mxCell id="zhDzLkj9nekMjERnJ0Cm-18" style="edgeStyle=orthogonalEdgeStyle;rounded=0;orthogonalLoop=1;jettySize=auto;html=1;endArrow=none;endFill=0;startArrow=diamond;startFill=1;" parent="1" source="zhDzLkj9nekMjERnJ0Cm-16" target="zhDzLkj9nekMjERnJ0Cm-1" edge="1">
          <mxGeometry relative="1" as="geometry" />
        </mxCell>
        <mxCell id="zhDzLkj9nekMjERnJ0Cm-19" value="&lt;div style=&quot;text-align: start;&quot;&gt;&lt;font face=&quot;-apple-system, BlinkMacSystemFont, Segoe UI, Noto Sans, Helvetica, Arial, sans-serif, Apple Color Emoji, Segoe UI Emoji&quot; color=&quot;#1f2328&quot;&gt;&lt;span style=&quot;font-size: 16px;&quot;&gt;&lt;b&gt;PieceColor&amp;lt;Enum&amp;gt;&lt;/b&gt;&lt;/span&gt;&lt;/font&gt;&lt;/div&gt;" style="swimlane;fontStyle=0;childLayout=stackLayout;horizontal=1;startSize=30;horizontalStack=0;resizeParent=1;resizeParentMax=0;resizeLast=0;collapsible=1;marginBottom=0;whiteSpace=wrap;html=1;fillColor=#ffe6cc;strokeColor=#d79b00;" parent="1" vertex="1">
          <mxGeometry x="140" y="440" width="170" height="60" as="geometry" />
        </mxCell>
        <mxCell id="zhDzLkj9nekMjERnJ0Cm-20" value="Black, White" style="text;strokeColor=none;fillColor=none;align=left;verticalAlign=middle;spacingLeft=4;spacingRight=4;overflow=hidden;points=[[0,0.5],[1,0.5]];portConstraint=eastwest;rotatable=0;whiteSpace=wrap;html=1;" parent="zhDzLkj9nekMjERnJ0Cm-19" vertex="1">
          <mxGeometry y="30" width="170" height="30" as="geometry" />
        </mxCell>
        <mxCell id="zhDzLkj9nekMjERnJ0Cm-24" value="&lt;div style=&quot;text-align: start;&quot;&gt;&lt;span style=&quot;background-color: initial; text-align: center; font-size: 16px;&quot;&gt;&lt;font face=&quot;-apple-system, BlinkMacSystemFont, Segoe UI, Noto Sans, Helvetica, Arial, sans-serif, Apple Color Emoji, Segoe UI Emoji&quot; color=&quot;#1f2328&quot;&gt;&lt;b&gt;PieceType&lt;/b&gt;&lt;/font&gt;&lt;/span&gt;&lt;font face=&quot;-apple-system, BlinkMacSystemFont, Segoe UI, Noto Sans, Helvetica, Arial, sans-serif, Apple Color Emoji, Segoe UI Emoji&quot; color=&quot;#1f2328&quot;&gt;&lt;span style=&quot;font-size: 16px;&quot;&gt;&lt;b&gt;&amp;lt;Enum&amp;gt;&lt;/b&gt;&lt;/span&gt;&lt;/font&gt;&lt;/div&gt;" style="swimlane;fontStyle=0;childLayout=stackLayout;horizontal=1;startSize=30;horizontalStack=0;resizeParent=1;resizeParentMax=0;resizeLast=0;collapsible=1;marginBottom=0;whiteSpace=wrap;html=1;fillColor=#ffe6cc;strokeColor=#d79b00;" parent="1" vertex="1">
          <mxGeometry x="340" y="440" width="170" height="60" as="geometry" />
        </mxCell>
        <mxCell id="zhDzLkj9nekMjERnJ0Cm-25" value="Pawn, Rock,&amp;nbsp;Knight..." style="text;strokeColor=none;fillColor=none;align=left;verticalAlign=middle;spacingLeft=4;spacingRight=4;overflow=hidden;points=[[0,0.5],[1,0.5]];portConstraint=eastwest;rotatable=0;whiteSpace=wrap;html=1;" parent="zhDzLkj9nekMjERnJ0Cm-24" vertex="1">
          <mxGeometry y="30" width="170" height="30" as="geometry" />
        </mxCell>
        <mxCell id="zhDzLkj9nekMjERnJ0Cm-26" value="Move" style="swimlane;fontStyle=1;childLayout=stackLayout;horizontal=1;startSize=30;horizontalStack=0;resizeParent=1;resizeParentMax=0;resizeLast=0;collapsible=1;marginBottom=0;fillColor=#fff2cc;strokeColor=#d6b656;fontColor=default;whiteSpace=wrap;fontSize=16;html=1;" parent="1" vertex="1">
          <mxGeometry x="60" y="90" width="140" height="240" as="geometry" />
        </mxCell>
        <mxCell id="zhDzLkj9nekMjERnJ0Cm-28" value="Piece&amp;nbsp;" style="text;strokeColor=none;fillColor=none;align=left;verticalAlign=middle;spacingLeft=4;spacingRight=4;overflow=hidden;points=[[0,0.5],[1,0.5]];portConstraint=eastwest;rotatable=0;whiteSpace=wrap;html=1;" parent="zhDzLkj9nekMjERnJ0Cm-26" vertex="1">
          <mxGeometry y="30" width="140" height="30" as="geometry" />
        </mxCell>
        <mxCell id="zhDzLkj9nekMjERnJ0Cm-29" value="SrcPosition&amp;nbsp;" style="text;strokeColor=none;fillColor=none;align=left;verticalAlign=middle;spacingLeft=4;spacingRight=4;overflow=hidden;points=[[0,0.5],[1,0.5]];portConstraint=eastwest;rotatable=0;whiteSpace=wrap;html=1;" parent="zhDzLkj9nekMjERnJ0Cm-26" vertex="1">
          <mxGeometry y="60" width="140" height="30" as="geometry" />
        </mxCell>
        <mxCell id="zhDzLkj9nekMjERnJ0Cm-30" value="DestPosition&amp;nbsp;" style="text;strokeColor=none;fillColor=none;align=left;verticalAlign=middle;spacingLeft=4;spacingRight=4;overflow=hidden;points=[[0,0.5],[1,0.5]];portConstraint=eastwest;rotatable=0;whiteSpace=wrap;html=1;" parent="zhDzLkj9nekMjERnJ0Cm-26" vertex="1">
          <mxGeometry y="90" width="140" height="30" as="geometry" />
        </mxCell>
        <mxCell id="zhDzLkj9nekMjERnJ0Cm-31" value="CapturedPiece&amp;nbsp;" style="text;strokeColor=none;fillColor=none;align=left;verticalAlign=middle;spacingLeft=4;spacingRight=4;overflow=hidden;points=[[0,0.5],[1,0.5]];portConstraint=eastwest;rotatable=0;whiteSpace=wrap;html=1;" parent="zhDzLkj9nekMjERnJ0Cm-26" vertex="1">
          <mxGeometry y="120" width="140" height="30" as="geometry" />
        </mxCell>
        <mxCell id="zhDzLkj9nekMjERnJ0Cm-32" value="IsCheck" style="text;strokeColor=none;fillColor=none;align=left;verticalAlign=middle;spacingLeft=4;spacingRight=4;overflow=hidden;points=[[0,0.5],[1,0.5]];portConstraint=eastwest;rotatable=0;whiteSpace=wrap;html=1;" parent="zhDzLkj9nekMjERnJ0Cm-26" vertex="1">
          <mxGeometry y="150" width="140" height="30" as="geometry" />
        </mxCell>
        <mxCell id="zhDzLkj9nekMjERnJ0Cm-33" value="IsMate&amp;nbsp;" style="text;strokeColor=none;fillColor=none;align=left;verticalAlign=middle;spacingLeft=4;spacingRight=4;overflow=hidden;points=[[0,0.5],[1,0.5]];portConstraint=eastwest;rotatable=0;whiteSpace=wrap;html=1;" parent="zhDzLkj9nekMjERnJ0Cm-26" vertex="1">
          <mxGeometry y="180" width="140" height="30" as="geometry" />
        </mxCell>
        <mxCell id="zhDzLkj9nekMjERnJ0Cm-27" value="Castle" style="text;strokeColor=none;fillColor=none;align=left;verticalAlign=middle;spacingLeft=4;spacingRight=4;overflow=hidden;points=[[0,0.5],[1,0.5]];portConstraint=eastwest;rotatable=0;whiteSpace=wrap;html=1;" parent="zhDzLkj9nekMjERnJ0Cm-26" vertex="1">
          <mxGeometry y="210" width="140" height="30" as="geometry" />
        </mxCell>
        <mxCell id="zhDzLkj9nekMjERnJ0Cm-34" style="edgeStyle=orthogonalEdgeStyle;rounded=0;orthogonalLoop=1;jettySize=auto;html=1;" parent="1" source="zhDzLkj9nekMjERnJ0Cm-29" target="zhDzLkj9nekMjERnJ0Cm-1" edge="1">
          <mxGeometry relative="1" as="geometry" />
        </mxCell>
        <mxCell id="zhDzLkj9nekMjERnJ0Cm-36" style="edgeStyle=orthogonalEdgeStyle;rounded=0;orthogonalLoop=1;jettySize=auto;html=1;" parent="1" source="zhDzLkj9nekMjERnJ0Cm-31" target="zhDzLkj9nekMjERnJ0Cm-12" edge="1">
          <mxGeometry relative="1" as="geometry">
            <Array as="points">
              <mxPoint x="20" y="225" />
              <mxPoint x="20" y="20" />
              <mxPoint x="530" y="20" />
            </Array>
          </mxGeometry>
        </mxCell>
        <mxCell id="zhDzLkj9nekMjERnJ0Cm-37" style="edgeStyle=orthogonalEdgeStyle;rounded=0;orthogonalLoop=1;jettySize=auto;html=1;" parent="1" source="zhDzLkj9nekMjERnJ0Cm-27" target="zhDzLkj9nekMjERnJ0Cm-6" edge="1">
          <mxGeometry relative="1" as="geometry" />
        </mxCell>
        <mxCell id="zhDzLkj9nekMjERnJ0Cm-38" value="&lt;div style=&quot;text-align: start; line-height: 110%;&quot;&gt;&lt;font face=&quot;-apple-system, BlinkMacSystemFont, Segoe UI, Noto Sans, Helvetica, Arial, sans-serif, Apple Color Emoji, Segoe UI Emoji&quot; color=&quot;#1f2328&quot;&gt;&lt;span style=&quot;font-size: 16px;&quot;&gt;&lt;b&gt;Board&lt;/b&gt;&lt;/span&gt;&lt;/font&gt;&lt;/div&gt;" style="swimlane;fontStyle=0;childLayout=stackLayout;horizontal=1;startSize=30;horizontalStack=0;resizeParent=1;resizeParentMax=0;resizeLast=0;collapsible=1;marginBottom=0;whiteSpace=wrap;html=1;fillColor=#fff2cc;strokeColor=#d6b656;" parent="1" vertex="1">
          <mxGeometry x="640" y="90" width="195" height="150" as="geometry" />
        </mxCell>
        <mxCell id="zhDzLkj9nekMjERnJ0Cm-39" value="Pieces&amp;nbsp;" style="text;strokeColor=none;fillColor=none;align=left;verticalAlign=middle;spacingLeft=4;spacingRight=4;overflow=hidden;points=[[0,0.5],[1,0.5]];portConstraint=eastwest;rotatable=0;whiteSpace=wrap;html=1;" parent="zhDzLkj9nekMjERnJ0Cm-38" vertex="1">
          <mxGeometry y="30" width="195" height="30" as="geometry" />
        </mxCell>
        <mxCell id="zhDzLkj9nekMjERnJ0Cm-40" value="whiteRightCaste" style="text;strokeColor=none;fillColor=none;align=left;verticalAlign=middle;spacingLeft=4;spacingRight=4;overflow=hidden;points=[[0,0.5],[1,0.5]];portConstraint=eastwest;rotatable=0;whiteSpace=wrap;html=1;" parent="zhDzLkj9nekMjERnJ0Cm-38" vertex="1">
          <mxGeometry y="60" width="195" height="30" as="geometry" />
        </mxCell>
        <mxCell id="zhDzLkj9nekMjERnJ0Cm-41" value="whiteLeftCaste" style="text;strokeColor=none;fillColor=none;align=left;verticalAlign=middle;spacingLeft=4;spacingRight=4;overflow=hidden;points=[[0,0.5],[1,0.5]];portConstraint=eastwest;rotatable=0;whiteSpace=wrap;html=1;" parent="zhDzLkj9nekMjERnJ0Cm-38" vertex="1">
          <mxGeometry y="90" width="195" height="30" as="geometry" />
        </mxCell>
        <mxCell id="zhDzLkj9nekMjERnJ0Cm-42" value="UpdateCastleState()" style="text;strokeColor=none;fillColor=none;align=left;verticalAlign=middle;spacingLeft=4;spacingRight=4;overflow=hidden;points=[[0,0.5],[1,0.5]];portConstraint=eastwest;rotatable=0;whiteSpace=wrap;html=1;" parent="zhDzLkj9nekMjERnJ0Cm-38" vertex="1">
          <mxGeometry y="120" width="195" height="30" as="geometry" />
        </mxCell>
        <mxCell id="zhDzLkj9nekMjERnJ0Cm-43" style="edgeStyle=orthogonalEdgeStyle;rounded=0;orthogonalLoop=1;jettySize=auto;html=1;" parent="1" source="zhDzLkj9nekMjERnJ0Cm-39" target="zhDzLkj9nekMjERnJ0Cm-12" edge="1">
          <mxGeometry relative="1" as="geometry" />
        </mxCell>
      </root>
    </mxGraphModel>
  </diagram>
  <diagram id="qYrbvRhoPKcM46GC_v11" name="App">
    <mxGraphModel dx="934" dy="534" grid="1" gridSize="10" guides="1" tooltips="1" connect="1" arrows="1" fold="1" page="1" pageScale="1" pageWidth="850" pageHeight="1100" math="0" shadow="0">
      <root>
        <mxCell id="0" />
        <mxCell id="1" parent="0" />
        <mxCell id="wJBCrdbJ7xVm0R0W2Xnf-1" value="ChessEngine" style="swimlane;fontStyle=1;childLayout=stackLayout;horizontal=1;startSize=30;horizontalStack=0;resizeParent=1;resizeParentMax=0;resizeLast=0;collapsible=1;marginBottom=0;fillColor=#fff2cc;strokeColor=#d6b656;fontColor=default;whiteSpace=wrap;fontSize=16;html=1;" vertex="1" parent="1">
          <mxGeometry x="250" y="20" width="140" height="420" as="geometry" />
        </mxCell>
        <mxCell id="wJBCrdbJ7xVm0R0W2Xnf-80" value="_gameEvaluator&amp;nbsp;" style="text;strokeColor=none;fillColor=none;align=left;verticalAlign=middle;spacingLeft=4;spacingRight=4;overflow=hidden;points=[[0,0.5],[1,0.5]];portConstraint=eastwest;rotatable=0;whiteSpace=wrap;html=1;" vertex="1" parent="wJBCrdbJ7xVm0R0W2Xnf-1">
          <mxGeometry y="30" width="140" height="30" as="geometry" />
        </mxCell>
        <mxCell id="wJBCrdbJ7xVm0R0W2Xnf-31" value="_positionEvaluator&amp;nbsp;" style="text;strokeColor=none;fillColor=none;align=left;verticalAlign=middle;spacingLeft=4;spacingRight=4;overflow=hidden;points=[[0,0.5],[1,0.5]];portConstraint=eastwest;rotatable=0;whiteSpace=wrap;html=1;" vertex="1" parent="wJBCrdbJ7xVm0R0W2Xnf-1">
          <mxGeometry y="60" width="140" height="30" as="geometry" />
        </mxCell>
        <mxCell id="wJBCrdbJ7xVm0R0W2Xnf-2" value="_boardManager" style="text;strokeColor=none;fillColor=none;align=left;verticalAlign=middle;spacingLeft=4;spacingRight=4;overflow=hidden;points=[[0,0.5],[1,0.5]];portConstraint=eastwest;rotatable=0;whiteSpace=wrap;html=1;" vertex="1" parent="wJBCrdbJ7xVm0R0W2Xnf-1">
          <mxGeometry y="90" width="140" height="30" as="geometry" />
        </mxCell>
        <mxCell id="wJBCrdbJ7xVm0R0W2Xnf-29" value="DropPiece()" style="text;strokeColor=none;fillColor=none;align=left;verticalAlign=middle;spacingLeft=4;spacingRight=4;overflow=hidden;points=[[0,0.5],[1,0.5]];portConstraint=eastwest;rotatable=0;whiteSpace=wrap;html=1;" vertex="1" parent="wJBCrdbJ7xVm0R0W2Xnf-1">
          <mxGeometry y="120" width="140" height="30" as="geometry" />
        </mxCell>
        <mxCell id="wJBCrdbJ7xVm0R0W2Xnf-3" value="RestorePiece()" style="text;strokeColor=none;fillColor=none;align=left;verticalAlign=middle;spacingLeft=4;spacingRight=4;overflow=hidden;points=[[0,0.5],[1,0.5]];portConstraint=eastwest;rotatable=0;whiteSpace=wrap;html=1;" vertex="1" parent="wJBCrdbJ7xVm0R0W2Xnf-1">
          <mxGeometry y="150" width="140" height="30" as="geometry" />
        </mxCell>
        <mxCell id="wJBCrdbJ7xVm0R0W2Xnf-4" value="IsLegalMove()" style="text;strokeColor=none;fillColor=none;align=left;verticalAlign=middle;spacingLeft=4;spacingRight=4;overflow=hidden;points=[[0,0.5],[1,0.5]];portConstraint=eastwest;rotatable=0;whiteSpace=wrap;html=1;" vertex="1" parent="wJBCrdbJ7xVm0R0W2Xnf-1">
          <mxGeometry y="180" width="140" height="30" as="geometry" />
        </mxCell>
        <mxCell id="wJBCrdbJ7xVm0R0W2Xnf-5" value="EvaluateBestMove()" style="text;strokeColor=none;fillColor=none;align=left;verticalAlign=middle;spacingLeft=4;spacingRight=4;overflow=hidden;points=[[0,0.5],[1,0.5]];portConstraint=eastwest;rotatable=0;whiteSpace=wrap;html=1;" vertex="1" parent="wJBCrdbJ7xVm0R0W2Xnf-1">
          <mxGeometry y="210" width="140" height="30" as="geometry" />
        </mxCell>
        <mxCell id="wJBCrdbJ7xVm0R0W2Xnf-6" value="IsCheck()" style="text;strokeColor=none;fillColor=none;align=left;verticalAlign=middle;spacingLeft=4;spacingRight=4;overflow=hidden;points=[[0,0.5],[1,0.5]];portConstraint=eastwest;rotatable=0;whiteSpace=wrap;html=1;" vertex="1" parent="wJBCrdbJ7xVm0R0W2Xnf-1">
          <mxGeometry y="240" width="140" height="30" as="geometry" />
        </mxCell>
        <mxCell id="wJBCrdbJ7xVm0R0W2Xnf-7" value="IsMate()" style="text;strokeColor=none;fillColor=none;align=left;verticalAlign=middle;spacingLeft=4;spacingRight=4;overflow=hidden;points=[[0,0.5],[1,0.5]];portConstraint=eastwest;rotatable=0;whiteSpace=wrap;html=1;" vertex="1" parent="wJBCrdbJ7xVm0R0W2Xnf-1">
          <mxGeometry y="270" width="140" height="30" as="geometry" />
        </mxCell>
        <mxCell id="wJBCrdbJ7xVm0R0W2Xnf-8" value="LoadBoard()" style="text;strokeColor=none;fillColor=none;align=left;verticalAlign=middle;spacingLeft=4;spacingRight=4;overflow=hidden;points=[[0,0.5],[1,0.5]];portConstraint=eastwest;rotatable=0;whiteSpace=wrap;html=1;" vertex="1" parent="wJBCrdbJ7xVm0R0W2Xnf-1">
          <mxGeometry y="300" width="140" height="30" as="geometry" />
        </mxCell>
        <mxCell id="wJBCrdbJ7xVm0R0W2Xnf-26" value="SaveBoard()" style="text;strokeColor=none;fillColor=none;align=left;verticalAlign=middle;spacingLeft=4;spacingRight=4;overflow=hidden;points=[[0,0.5],[1,0.5]];portConstraint=eastwest;rotatable=0;whiteSpace=wrap;html=1;" vertex="1" parent="wJBCrdbJ7xVm0R0W2Xnf-1">
          <mxGeometry y="330" width="140" height="30" as="geometry" />
        </mxCell>
        <mxCell id="wJBCrdbJ7xVm0R0W2Xnf-27" value="NextMove()" style="text;strokeColor=none;fillColor=none;align=left;verticalAlign=middle;spacingLeft=4;spacingRight=4;overflow=hidden;points=[[0,0.5],[1,0.5]];portConstraint=eastwest;rotatable=0;whiteSpace=wrap;html=1;" vertex="1" parent="wJBCrdbJ7xVm0R0W2Xnf-1">
          <mxGeometry y="360" width="140" height="30" as="geometry" />
        </mxCell>
        <mxCell id="wJBCrdbJ7xVm0R0W2Xnf-28" value="PrevMove()" style="text;strokeColor=none;fillColor=none;align=left;verticalAlign=middle;spacingLeft=4;spacingRight=4;overflow=hidden;points=[[0,0.5],[1,0.5]];portConstraint=eastwest;rotatable=0;whiteSpace=wrap;html=1;" vertex="1" parent="wJBCrdbJ7xVm0R0W2Xnf-1">
          <mxGeometry y="390" width="140" height="30" as="geometry" />
        </mxCell>
        <mxCell id="wJBCrdbJ7xVm0R0W2Xnf-47" style="edgeStyle=orthogonalEdgeStyle;rounded=0;orthogonalLoop=1;jettySize=auto;html=1;dashed=1;dashPattern=1 1;targetPerimeterSpacing=0;endArrow=blockThin;endFill=1;" edge="1" parent="1" source="wJBCrdbJ7xVm0R0W2Xnf-10" target="wJBCrdbJ7xVm0R0W2Xnf-41">
          <mxGeometry relative="1" as="geometry" />
        </mxCell>
        <mxCell id="wJBCrdbJ7xVm0R0W2Xnf-10" value="BoardManager" style="swimlane;fontStyle=1;childLayout=stackLayout;horizontal=1;startSize=30;horizontalStack=0;resizeParent=1;resizeParentMax=0;resizeLast=0;collapsible=1;marginBottom=0;fillColor=#fff2cc;strokeColor=#d6b656;fontColor=default;whiteSpace=wrap;fontSize=16;html=1;" vertex="1" parent="1">
          <mxGeometry x="425" y="380" width="155" height="60" as="geometry" />
        </mxCell>
        <mxCell id="wJBCrdbJ7xVm0R0W2Xnf-11" value="UpdateCastleState()" style="text;strokeColor=none;fillColor=none;align=left;verticalAlign=middle;spacingLeft=4;spacingRight=4;overflow=hidden;points=[[0,0.5],[1,0.5]];portConstraint=eastwest;rotatable=0;whiteSpace=wrap;html=1;fontColor=#000000;" vertex="1" parent="wJBCrdbJ7xVm0R0W2Xnf-10">
          <mxGeometry y="30" width="155" height="30" as="geometry" />
        </mxCell>
        <mxCell id="wJBCrdbJ7xVm0R0W2Xnf-62" style="edgeStyle=orthogonalEdgeStyle;rounded=0;orthogonalLoop=1;jettySize=auto;html=1;dashed=1;dashPattern=1 1;endArrow=blockThin;endFill=1;" edge="1" parent="1" source="wJBCrdbJ7xVm0R0W2Xnf-18" target="wJBCrdbJ7xVm0R0W2Xnf-48">
          <mxGeometry relative="1" as="geometry" />
        </mxCell>
        <mxCell id="wJBCrdbJ7xVm0R0W2Xnf-18" value="PositionEvaluator&amp;nbsp;" style="swimlane;fontStyle=1;childLayout=stackLayout;horizontal=1;startSize=30;horizontalStack=0;resizeParent=1;resizeParentMax=0;resizeLast=0;collapsible=1;marginBottom=0;fillColor=#fff2cc;strokeColor=#d6b656;fontColor=default;whiteSpace=wrap;fontSize=16;html=1;" vertex="1" parent="1">
          <mxGeometry x="27.5" y="190" width="200" height="240" as="geometry" />
        </mxCell>
        <mxCell id="wJBCrdbJ7xVm0R0W2Xnf-19" value="_boardManager" style="text;strokeColor=none;fillColor=none;align=left;verticalAlign=middle;spacingLeft=4;spacingRight=4;overflow=hidden;points=[[0,0.5],[1,0.5]];portConstraint=eastwest;rotatable=0;whiteSpace=wrap;html=1;" vertex="1" parent="wJBCrdbJ7xVm0R0W2Xnf-18">
          <mxGeometry y="30" width="200" height="30" as="geometry" />
        </mxCell>
        <mxCell id="wJBCrdbJ7xVm0R0W2Xnf-20" value="GetLegalPawnPositions()" style="text;strokeColor=none;fillColor=none;align=left;verticalAlign=middle;spacingLeft=4;spacingRight=4;overflow=hidden;points=[[0,0.5],[1,0.5]];portConstraint=eastwest;rotatable=0;whiteSpace=wrap;html=1;fontColor=#000000;" vertex="1" parent="wJBCrdbJ7xVm0R0W2Xnf-18">
          <mxGeometry y="60" width="200" height="30" as="geometry" />
        </mxCell>
        <mxCell id="wJBCrdbJ7xVm0R0W2Xnf-21" value="GetLegalKingPositions()" style="text;strokeColor=none;fillColor=none;align=left;verticalAlign=middle;spacingLeft=4;spacingRight=4;overflow=hidden;points=[[0,0.5],[1,0.5]];portConstraint=eastwest;rotatable=0;whiteSpace=wrap;html=1;fontColor=#000000;" vertex="1" parent="wJBCrdbJ7xVm0R0W2Xnf-18">
          <mxGeometry y="90" width="200" height="30" as="geometry" />
        </mxCell>
        <mxCell id="wJBCrdbJ7xVm0R0W2Xnf-25" value="GetLegalRockPositions()" style="text;strokeColor=none;fillColor=none;align=left;verticalAlign=middle;spacingLeft=4;spacingRight=4;overflow=hidden;points=[[0,0.5],[1,0.5]];portConstraint=eastwest;rotatable=0;whiteSpace=wrap;html=1;fontColor=#000000;" vertex="1" parent="wJBCrdbJ7xVm0R0W2Xnf-18">
          <mxGeometry y="120" width="200" height="30" as="geometry" />
        </mxCell>
        <mxCell id="wJBCrdbJ7xVm0R0W2Xnf-59" value="GetLegalBishopPositions()" style="text;strokeColor=none;fillColor=none;align=left;verticalAlign=middle;spacingLeft=4;spacingRight=4;overflow=hidden;points=[[0,0.5],[1,0.5]];portConstraint=eastwest;rotatable=0;whiteSpace=wrap;html=1;fontColor=#000000;" vertex="1" parent="wJBCrdbJ7xVm0R0W2Xnf-18">
          <mxGeometry y="150" width="200" height="30" as="geometry" />
        </mxCell>
        <mxCell id="wJBCrdbJ7xVm0R0W2Xnf-60" value="GetLegalNightPositions()" style="text;strokeColor=none;fillColor=none;align=left;verticalAlign=middle;spacingLeft=4;spacingRight=4;overflow=hidden;points=[[0,0.5],[1,0.5]];portConstraint=eastwest;rotatable=0;whiteSpace=wrap;html=1;fontColor=#000000;" vertex="1" parent="wJBCrdbJ7xVm0R0W2Xnf-18">
          <mxGeometry y="180" width="200" height="30" as="geometry" />
        </mxCell>
        <mxCell id="wJBCrdbJ7xVm0R0W2Xnf-61" value="GetLegalQueenPositions()" style="text;strokeColor=none;fillColor=none;align=left;verticalAlign=middle;spacingLeft=4;spacingRight=4;overflow=hidden;points=[[0,0.5],[1,0.5]];portConstraint=eastwest;rotatable=0;whiteSpace=wrap;html=1;fontColor=#000000;" vertex="1" parent="wJBCrdbJ7xVm0R0W2Xnf-18">
          <mxGeometry y="210" width="200" height="30" as="geometry" />
        </mxCell>
        <mxCell id="wJBCrdbJ7xVm0R0W2Xnf-33" value="CommonUtils" style="swimlane;fontStyle=1;childLayout=stackLayout;horizontal=1;startSize=30;horizontalStack=0;resizeParent=1;resizeParentMax=0;resizeLast=0;collapsible=1;marginBottom=0;fillColor=#fff2cc;strokeColor=#d6b656;fontColor=default;whiteSpace=wrap;fontSize=16;html=1;" vertex="1" parent="1">
          <mxGeometry x="270" y="470" width="200" height="90" as="geometry" />
        </mxCell>
        <mxCell id="wJBCrdbJ7xVm0R0W2Xnf-34" value="SaveBoard(FileName)" style="text;strokeColor=none;fillColor=none;align=left;verticalAlign=middle;spacingLeft=4;spacingRight=4;overflow=hidden;points=[[0,0.5],[1,0.5]];portConstraint=eastwest;rotatable=0;whiteSpace=wrap;html=1;" vertex="1" parent="wJBCrdbJ7xVm0R0W2Xnf-33">
          <mxGeometry y="30" width="200" height="30" as="geometry" />
        </mxCell>
        <mxCell id="wJBCrdbJ7xVm0R0W2Xnf-35" value="LoadBoard(FileName)" style="text;strokeColor=none;fillColor=none;align=left;verticalAlign=middle;spacingLeft=4;spacingRight=4;overflow=hidden;points=[[0,0.5],[1,0.5]];portConstraint=eastwest;rotatable=0;whiteSpace=wrap;html=1;" vertex="1" parent="wJBCrdbJ7xVm0R0W2Xnf-33">
          <mxGeometry y="60" width="200" height="30" as="geometry" />
        </mxCell>
        <mxCell id="wJBCrdbJ7xVm0R0W2Xnf-41" value="IBoardManager" style="swimlane;fontStyle=1;childLayout=stackLayout;horizontal=1;startSize=30;horizontalStack=0;resizeParent=1;resizeParentMax=0;resizeLast=0;collapsible=1;marginBottom=0;fillColor=#fff2cc;strokeColor=#d6b656;fontColor=default;whiteSpace=wrap;fontSize=16;html=1;" vertex="1" parent="1">
          <mxGeometry x="425" y="160" width="155" height="180" as="geometry" />
        </mxCell>
        <mxCell id="wJBCrdbJ7xVm0R0W2Xnf-42" value="Board?" style="text;strokeColor=none;fillColor=none;align=left;verticalAlign=middle;spacingLeft=4;spacingRight=4;overflow=hidden;points=[[0,0.5],[1,0.5]];portConstraint=eastwest;rotatable=0;whiteSpace=wrap;html=1;" vertex="1" parent="wJBCrdbJ7xVm0R0W2Xnf-41">
          <mxGeometry y="30" width="155" height="30" as="geometry" />
        </mxCell>
        <mxCell id="wJBCrdbJ7xVm0R0W2Xnf-43" value="DropPiece(Move)" style="text;strokeColor=none;fillColor=none;align=left;verticalAlign=middle;spacingLeft=4;spacingRight=4;overflow=hidden;points=[[0,0.5],[1,0.5]];portConstraint=eastwest;rotatable=0;whiteSpace=wrap;html=1;" vertex="1" parent="wJBCrdbJ7xVm0R0W2Xnf-41">
          <mxGeometry y="60" width="155" height="30" as="geometry" />
        </mxCell>
        <mxCell id="wJBCrdbJ7xVm0R0W2Xnf-44" value="RestorePiece(Move)" style="text;strokeColor=none;fillColor=none;align=left;verticalAlign=middle;spacingLeft=4;spacingRight=4;overflow=hidden;points=[[0,0.5],[1,0.5]];portConstraint=eastwest;rotatable=0;whiteSpace=wrap;html=1;" vertex="1" parent="wJBCrdbJ7xVm0R0W2Xnf-41">
          <mxGeometry y="90" width="155" height="30" as="geometry" />
        </mxCell>
        <mxCell id="wJBCrdbJ7xVm0R0W2Xnf-45" value="GetCastleState()" style="text;strokeColor=none;fillColor=none;align=left;verticalAlign=middle;spacingLeft=4;spacingRight=4;overflow=hidden;points=[[0,0.5],[1,0.5]];portConstraint=eastwest;rotatable=0;whiteSpace=wrap;html=1;" vertex="1" parent="wJBCrdbJ7xVm0R0W2Xnf-41">
          <mxGeometry y="120" width="155" height="30" as="geometry" />
        </mxCell>
        <mxCell id="wJBCrdbJ7xVm0R0W2Xnf-46" value="GetPiece()" style="text;strokeColor=none;fillColor=none;align=left;verticalAlign=middle;spacingLeft=4;spacingRight=4;overflow=hidden;points=[[0,0.5],[1,0.5]];portConstraint=eastwest;rotatable=0;whiteSpace=wrap;html=1;" vertex="1" parent="wJBCrdbJ7xVm0R0W2Xnf-41">
          <mxGeometry y="150" width="155" height="30" as="geometry" />
        </mxCell>
        <mxCell id="wJBCrdbJ7xVm0R0W2Xnf-48" value="IPositionEvaluator" style="swimlane;fontStyle=1;childLayout=stackLayout;horizontal=1;startSize=30;horizontalStack=0;resizeParent=1;resizeParentMax=0;resizeLast=0;collapsible=1;marginBottom=0;fillColor=#fff2cc;strokeColor=#d6b656;fontColor=default;whiteSpace=wrap;fontSize=16;html=1;" vertex="1" parent="1">
          <mxGeometry x="50" y="50" width="155" height="90" as="geometry" />
        </mxCell>
        <mxCell id="wJBCrdbJ7xVm0R0W2Xnf-49" value="GetLegalPositions()" style="text;strokeColor=none;fillColor=none;align=left;verticalAlign=middle;spacingLeft=4;spacingRight=4;overflow=hidden;points=[[0,0.5],[1,0.5]];portConstraint=eastwest;rotatable=0;whiteSpace=wrap;html=1;" vertex="1" parent="wJBCrdbJ7xVm0R0W2Xnf-48">
          <mxGeometry y="30" width="155" height="30" as="geometry" />
        </mxCell>
        <mxCell id="wJBCrdbJ7xVm0R0W2Xnf-50" value="InitPieces()" style="text;strokeColor=none;fillColor=none;align=left;verticalAlign=middle;spacingLeft=4;spacingRight=4;overflow=hidden;points=[[0,0.5],[1,0.5]];portConstraint=eastwest;rotatable=0;whiteSpace=wrap;html=1;" vertex="1" parent="wJBCrdbJ7xVm0R0W2Xnf-48">
          <mxGeometry y="60" width="155" height="30" as="geometry" />
        </mxCell>
        <mxCell id="wJBCrdbJ7xVm0R0W2Xnf-56" style="edgeStyle=orthogonalEdgeStyle;rounded=0;orthogonalLoop=1;jettySize=auto;html=1;" edge="1" parent="1" source="wJBCrdbJ7xVm0R0W2Xnf-31" target="wJBCrdbJ7xVm0R0W2Xnf-48">
          <mxGeometry relative="1" as="geometry" />
        </mxCell>
        <mxCell id="wJBCrdbJ7xVm0R0W2Xnf-57" style="edgeStyle=orthogonalEdgeStyle;rounded=0;orthogonalLoop=1;jettySize=auto;html=1;" edge="1" parent="1" source="wJBCrdbJ7xVm0R0W2Xnf-2" target="wJBCrdbJ7xVm0R0W2Xnf-41">
          <mxGeometry relative="1" as="geometry" />
        </mxCell>
        <mxCell id="wJBCrdbJ7xVm0R0W2Xnf-63" value="IGameEvaluator" style="swimlane;fontStyle=1;childLayout=stackLayout;horizontal=1;startSize=30;horizontalStack=0;resizeParent=1;resizeParentMax=0;resizeLast=0;collapsible=1;marginBottom=0;fillColor=#fff2cc;strokeColor=#d6b656;fontColor=default;whiteSpace=wrap;fontSize=16;html=1;" vertex="1" parent="1">
          <mxGeometry x="630" y="5" width="155" height="120" as="geometry" />
        </mxCell>
        <mxCell id="wJBCrdbJ7xVm0R0W2Xnf-64" value="EvaluateBestMove()" style="text;strokeColor=none;fillColor=none;align=left;verticalAlign=middle;spacingLeft=4;spacingRight=4;overflow=hidden;points=[[0,0.5],[1,0.5]];portConstraint=eastwest;rotatable=0;whiteSpace=wrap;html=1;" vertex="1" parent="wJBCrdbJ7xVm0R0W2Xnf-63">
          <mxGeometry y="30" width="155" height="30" as="geometry" />
        </mxCell>
        <mxCell id="wJBCrdbJ7xVm0R0W2Xnf-65" value="InitPieces()" style="text;strokeColor=none;fillColor=none;align=left;verticalAlign=middle;spacingLeft=4;spacingRight=4;overflow=hidden;points=[[0,0.5],[1,0.5]];portConstraint=eastwest;rotatable=0;whiteSpace=wrap;html=1;" vertex="1" parent="wJBCrdbJ7xVm0R0W2Xnf-63">
          <mxGeometry y="60" width="155" height="30" as="geometry" />
        </mxCell>
        <mxCell id="wJBCrdbJ7xVm0R0W2Xnf-79" value="EvaluateGame(bord)" style="text;strokeColor=none;fillColor=none;align=left;verticalAlign=middle;spacingLeft=4;spacingRight=4;overflow=hidden;points=[[0,0.5],[1,0.5]];portConstraint=eastwest;rotatable=0;whiteSpace=wrap;html=1;" vertex="1" parent="wJBCrdbJ7xVm0R0W2Xnf-63">
          <mxGeometry y="90" width="155" height="30" as="geometry" />
        </mxCell>
        <mxCell id="wJBCrdbJ7xVm0R0W2Xnf-82" style="edgeStyle=orthogonalEdgeStyle;rounded=0;orthogonalLoop=1;jettySize=auto;html=1;" edge="1" parent="1" source="wJBCrdbJ7xVm0R0W2Xnf-66" target="wJBCrdbJ7xVm0R0W2Xnf-63">
          <mxGeometry relative="1" as="geometry" />
        </mxCell>
        <mxCell id="wJBCrdbJ7xVm0R0W2Xnf-66" value="GameEvaluator" style="swimlane;fontStyle=1;childLayout=stackLayout;horizontal=1;startSize=30;horizontalStack=0;resizeParent=1;resizeParentMax=0;resizeLast=0;collapsible=1;marginBottom=0;fillColor=#fff2cc;strokeColor=#d6b656;fontColor=default;whiteSpace=wrap;fontSize=16;html=1;" vertex="1" parent="1">
          <mxGeometry x="637.5" y="190" width="140" height="210" as="geometry" />
        </mxCell>
        <mxCell id="wJBCrdbJ7xVm0R0W2Xnf-68" value="BlackPieces&amp;nbsp;" style="text;strokeColor=none;fillColor=none;align=left;verticalAlign=middle;spacingLeft=4;spacingRight=4;overflow=hidden;points=[[0,0.5],[1,0.5]];portConstraint=eastwest;rotatable=0;whiteSpace=wrap;html=1;" vertex="1" parent="wJBCrdbJ7xVm0R0W2Xnf-66">
          <mxGeometry y="30" width="140" height="30" as="geometry" />
        </mxCell>
        <mxCell id="wJBCrdbJ7xVm0R0W2Xnf-69" value="WhitePieces&amp;nbsp;" style="text;strokeColor=none;fillColor=none;align=left;verticalAlign=middle;spacingLeft=4;spacingRight=4;overflow=hidden;points=[[0,0.5],[1,0.5]];portConstraint=eastwest;rotatable=0;whiteSpace=wrap;html=1;" vertex="1" parent="wJBCrdbJ7xVm0R0W2Xnf-66">
          <mxGeometry y="60" width="140" height="30" as="geometry" />
        </mxCell>
        <mxCell id="wJBCrdbJ7xVm0R0W2Xnf-67" value="InitPlayersPieces()" style="text;strokeColor=none;fillColor=none;align=left;verticalAlign=middle;spacingLeft=4;spacingRight=4;overflow=hidden;points=[[0,0.5],[1,0.5]];portConstraint=eastwest;rotatable=0;whiteSpace=wrap;html=1;" vertex="1" parent="wJBCrdbJ7xVm0R0W2Xnf-66">
          <mxGeometry y="90" width="140" height="30" as="geometry" />
        </mxCell>
        <mxCell id="wJBCrdbJ7xVm0R0W2Xnf-70" value="EvaluateBestMove()" style="text;strokeColor=none;fillColor=none;align=left;verticalAlign=middle;spacingLeft=4;spacingRight=4;overflow=hidden;points=[[0,0.5],[1,0.5]];portConstraint=eastwest;rotatable=0;whiteSpace=wrap;html=1;" vertex="1" parent="wJBCrdbJ7xVm0R0W2Xnf-66">
          <mxGeometry y="120" width="140" height="30" as="geometry" />
        </mxCell>
        <mxCell id="wJBCrdbJ7xVm0R0W2Xnf-83" value="DropPiece()" style="text;strokeColor=none;fillColor=none;align=left;verticalAlign=middle;spacingLeft=4;spacingRight=4;overflow=hidden;points=[[0,0.5],[1,0.5]];portConstraint=eastwest;rotatable=0;whiteSpace=wrap;html=1;" vertex="1" parent="wJBCrdbJ7xVm0R0W2Xnf-66">
          <mxGeometry y="150" width="140" height="30" as="geometry" />
        </mxCell>
        <mxCell id="wJBCrdbJ7xVm0R0W2Xnf-84" value="RestorePiece()" style="text;strokeColor=none;fillColor=none;align=left;verticalAlign=middle;spacingLeft=4;spacingRight=4;overflow=hidden;points=[[0,0.5],[1,0.5]];portConstraint=eastwest;rotatable=0;whiteSpace=wrap;html=1;" vertex="1" parent="wJBCrdbJ7xVm0R0W2Xnf-66">
          <mxGeometry y="180" width="140" height="30" as="geometry" />
        </mxCell>
        <mxCell id="wJBCrdbJ7xVm0R0W2Xnf-81" style="edgeStyle=orthogonalEdgeStyle;rounded=0;orthogonalLoop=1;jettySize=auto;html=1;" edge="1" parent="1" source="wJBCrdbJ7xVm0R0W2Xnf-80" target="wJBCrdbJ7xVm0R0W2Xnf-63">
          <mxGeometry relative="1" as="geometry" />
        </mxCell>
      </root>
    </mxGraphModel>
  </diagram>
</mxfile>
